<svg width="48" height="48" viewBox="0 0 48 48" fill="none" xmlns="http://www.w3.org/2000/svg">
<g id="Frame 277131121">
<rect width="48" height="48" rx="24" fill="#F6F8FD"/>
<g id="Union">
<mask id="path-2-outside-1_68_5577" maskUnits="userSpaceOnUse" x="14" y="11" width="19" height="27" fill="black">
<rect fill="white" x="14" y="11" width="19" height="27"/>
<path fill-rule="evenodd" clip-rule="evenodd" d="M31 20.5C31 24.6421 27.6421 28 23.5 28C19.3579 28 16 24.6421 16 20.5C16 16.3579 19.3579 13 23.5 13C27.6421 13 31 16.3579 31 20.5ZM32 20.5C32 25.1944 28.1944 29 23.5 29L24 29V35.2929L26.3284 32.9646C26.5237 32.7694 26.8403 32.7694 27.0355 32.9646C27.2308 33.1599 27.2308 33.4765 27.0355 33.6718L23.8536 36.8536C23.6583 37.0488 23.3417 37.0488 23.1464 36.8535L19.9645 33.6714C19.7692 33.4761 19.7692 33.1595 19.9645 32.9643C20.1597 32.769 20.4763 32.769 20.6716 32.9643L23 35.2929L23 29L23.4991 29C18.8051 28.9995 15 25.1941 15 20.5C15 15.8056 18.8056 12 23.5 12C28.1944 12 32 15.8056 32 20.5Z"/>
</mask>
<path fill-rule="evenodd" clip-rule="evenodd" d="M31 20.5C31 24.6421 27.6421 28 23.5 28C19.3579 28 16 24.6421 16 20.5C16 16.3579 19.3579 13 23.5 13C27.6421 13 31 16.3579 31 20.5ZM32 20.5C32 25.1944 28.1944 29 23.5 29L24 29V35.2929L26.3284 32.9646C26.5237 32.7694 26.8403 32.7694 27.0355 32.9646C27.2308 33.1599 27.2308 33.4765 27.0355 33.6718L23.8536 36.8536C23.6583 37.0488 23.3417 37.0488 23.1464 36.8535L19.9645 33.6714C19.7692 33.4761 19.7692 33.1595 19.9645 32.9643C20.1597 32.769 20.4763 32.769 20.6716 32.9643L23 35.2929L23 29L23.4991 29C18.8051 28.9995 15 25.1941 15 20.5C15 15.8056 18.8056 12 23.5 12C28.1944 12 32 15.8056 32 20.5Z" fill="#C8C9CF"/>
<path d="M23.5 29V28.5L23.5 29.5L23.5 29ZM24 29H24.5V28.5L24 28.5L24 29ZM24 35.2929H23.5V36.5L24.3535 35.6465L24 35.2929ZM26.3284 32.9646L25.9749 32.611L26.3284 32.9646ZM27.0355 33.6718L26.682 33.3182L27.0355 33.6718ZM23.8536 36.8536L23.5 36.5L23.5 36.5L23.8536 36.8536ZM23.1464 36.8535L23.5 36.5H23.5L23.1464 36.8535ZM19.9645 33.6714L20.318 33.3178L19.9645 33.6714ZM19.9645 32.9643L20.318 33.3178L20.318 33.3178L19.9645 32.9643ZM20.6716 32.9643L20.318 33.3179H20.318L20.6716 32.9643ZM23 35.2929L22.6464 35.6464L23.5 36.5V35.2929H23ZM23 29L23 28.5L22.5 28.5V29H23ZM23.4991 29L23.4991 29.5L23.4992 28.5L23.4991 29ZM23.5 28.5C27.9183 28.5 31.5 24.9183 31.5 20.5H30.5C30.5 24.366 27.366 27.5 23.5 27.5V28.5ZM15.5 20.5C15.5 24.9183 19.0817 28.5 23.5 28.5V27.5C19.634 27.5 16.5 24.366 16.5 20.5H15.5ZM23.5 12.5C19.0817 12.5 15.5 16.0817 15.5 20.5H16.5C16.5 16.634 19.634 13.5 23.5 13.5V12.5ZM31.5 20.5C31.5 16.0817 27.9183 12.5 23.5 12.5V13.5C27.366 13.5 30.5 16.634 30.5 20.5H31.5ZM23.5 29.5C28.4706 29.5 32.5 25.4706 32.5 20.5H31.5C31.5 24.9183 27.9183 28.5 23.5 28.5V29.5ZM23.5 29.5L24 29.5L24 28.5L23.5 28.5L23.5 29.5ZM23.5 29V35.2929H24.5V29H23.5ZM24.3535 35.6465L26.682 33.3182L25.9749 32.611L23.6465 34.9394L24.3535 35.6465ZM26.682 33.3182L26.682 33.3182L27.3891 32.6111C26.9986 32.2206 26.3654 32.2205 25.9749 32.611L26.682 33.3182ZM26.682 33.3182H26.682L27.3891 34.0253C27.7796 33.6348 27.7796 33.0016 27.3891 32.6111L26.682 33.3182ZM26.682 33.3182L23.5 36.5L24.2071 37.2071L27.3891 34.0253L26.682 33.3182ZM23.5 36.5L23.5 36.5L22.7929 37.2071C23.1834 37.5976 23.8166 37.5977 24.2071 37.2071L23.5 36.5ZM23.5 36.5L20.318 33.3178L19.6109 34.0249L22.7929 37.2071L23.5 36.5ZM20.318 33.3178L20.318 33.3178L19.6109 32.6107C19.2204 33.0012 19.2204 33.6344 19.6109 34.0249L20.318 33.3178ZM20.318 33.3178L20.318 33.3179L21.0251 32.6108C20.6346 32.2203 20.0015 32.2202 19.6109 32.6107L20.318 33.3178ZM20.318 33.3179L22.6464 35.6464L23.3536 34.9393L21.0251 32.6108L20.318 33.3179ZM23.5 35.2929L23.5 29H22.5L22.5 35.2929H23.5ZM23 29.5L23.4991 29.5L23.4992 28.5L23 28.5L23 29.5ZM14.5 20.5C14.5 25.4703 18.5289 29.4995 23.4991 29.5L23.4992 28.5C19.0813 28.4996 15.5 24.918 15.5 20.5H14.5ZM23.5 11.5C18.5294 11.5 14.5 15.5294 14.5 20.5H15.5C15.5 16.0817 19.0817 12.5 23.5 12.5V11.5ZM32.5 20.5C32.5 15.5294 28.4706 11.5 23.5 11.5V12.5C27.9183 12.5 31.5 16.0817 31.5 20.5H32.5Z" fill="#C8C9CF" mask="url(#path-2-outside-1_68_5577)"/>
</g>
</g>
</svg>
