<svg width="48" height="48" viewBox="0 0 48 48" fill="none" xmlns="http://www.w3.org/2000/svg">
<g id="Frame 277131120">
<rect width="48" height="48" rx="24" fill="#F4F8FF"/>
<g id="Union">
<mask id="path-2-outside-1_68_5575" maskUnits="userSpaceOnUse" x="13" y="13" width="22" height="22" fill="black">
<rect fill="white" x="13" y="13" width="22" height="22"/>
<path fill-rule="evenodd" clip-rule="evenodd" d="M33.5003 14H29.0004C28.7243 14 28.5004 14.2239 28.5004 14.5C28.5004 14.7762 28.7243 15 29.0004 15L32.2932 15L27.9028 19.3907C26.4273 18.081 24.4851 17.2855 22.357 17.2855C17.7416 17.2855 14 21.0273 14 25.643C14 30.2587 17.7416 34.0005 22.357 34.0005C26.9725 34.0005 30.7141 30.2587 30.7141 25.643C30.7141 23.5153 29.919 21.5733 28.6098 20.0979L33.0003 15.7072V19.0001C33.0003 19.2763 33.2242 19.5001 33.5003 19.5001C33.7764 19.5001 34.0003 19.2763 34.0003 19.0001V14.5C34.0003 14.2239 33.7764 14 33.5003 14ZM29.7141 25.643C29.7141 29.7065 26.4202 33.0005 22.357 33.0005C18.2939 33.0005 15 29.7065 15 25.643C15 21.5795 18.2939 18.2855 22.357 18.2855C26.4202 18.2855 29.7141 21.5795 29.7141 25.643Z"/>
</mask>
<path fill-rule="evenodd" clip-rule="evenodd" d="M33.5003 14H29.0004C28.7243 14 28.5004 14.2239 28.5004 14.5C28.5004 14.7762 28.7243 15 29.0004 15L32.2932 15L27.9028 19.3907C26.4273 18.081 24.4851 17.2855 22.357 17.2855C17.7416 17.2855 14 21.0273 14 25.643C14 30.2587 17.7416 34.0005 22.357 34.0005C26.9725 34.0005 30.7141 30.2587 30.7141 25.643C30.7141 23.5153 29.919 21.5733 28.6098 20.0979L33.0003 15.7072V19.0001C33.0003 19.2763 33.2242 19.5001 33.5003 19.5001C33.7764 19.5001 34.0003 19.2763 34.0003 19.0001V14.5C34.0003 14.2239 33.7764 14 33.5003 14ZM29.7141 25.643C29.7141 29.7065 26.4202 33.0005 22.357 33.0005C18.2939 33.0005 15 29.7065 15 25.643C15 21.5795 18.2939 18.2855 22.357 18.2855C26.4202 18.2855 29.7141 21.5795 29.7141 25.643Z" fill="#3478EB"/>
<path d="M29.0004 15V15.5V15ZM32.2932 15L32.6468 15.3536L33.5003 14.5L32.2932 14.5V15ZM27.9028 19.3907L27.5708 19.7647L27.9232 20.0774L28.2563 19.7443L27.9028 19.3907ZM28.6098 20.0979L28.2562 19.7444L27.9232 20.0774L28.2358 20.4298L28.6098 20.0979ZM33.0003 15.7072H33.5003V14.5L32.6468 15.3536L33.0003 15.7072ZM33.5003 19.5001V19.0001V19.5001ZM29.0004 14.5H33.5003V13.5H29.0004V14.5ZM29.0004 14.5L29.0004 14.5V13.5C28.4481 13.5 28.0004 13.9477 28.0004 14.5H29.0004ZM29.0004 14.5L29.0004 14.5H28.0004C28.0004 15.0523 28.4481 15.5 29.0004 15.5V14.5ZM32.2932 14.5L29.0004 14.5V15.5L32.2932 15.5V14.5ZM28.2563 19.7443L32.6468 15.3536L31.9397 14.6465L27.5492 19.0372L28.2563 19.7443ZM28.2347 19.0168C26.6713 17.629 24.6121 16.7855 22.357 16.7855V17.7855C24.3581 17.7855 26.1834 18.533 27.5708 19.7647L28.2347 19.0168ZM22.357 16.7855C17.4654 16.7855 13.5 20.7512 13.5 25.643H14.5C14.5 21.3034 18.0177 17.7855 22.357 17.7855V16.7855ZM13.5 25.643C13.5 30.5348 17.4654 34.5005 22.357 34.5005V33.5005C18.0177 33.5005 14.5 29.9826 14.5 25.643H13.5ZM22.357 34.5005C27.2487 34.5005 31.2141 30.5348 31.2141 25.643H30.2141C30.2141 29.9826 26.6964 33.5005 22.357 33.5005V34.5005ZM31.2141 25.643C31.2141 23.3883 30.3711 21.3294 28.9838 19.766L28.2358 20.4298C29.467 21.8172 30.2141 23.6422 30.2141 25.643H31.2141ZM32.6468 15.3536L28.2562 19.7444L28.9634 20.4514L33.3539 16.0607L32.6468 15.3536ZM33.5003 19.0001V15.7072H32.5003V19.0001H33.5003ZM33.5003 19.0001L33.5003 19.0001H32.5003C32.5003 19.5524 32.948 20.0001 33.5003 20.0001V19.0001ZM33.5003 19.0001L33.5003 19.0001V20.0001C34.0526 20.0001 34.5003 19.5524 34.5003 19.0001H33.5003ZM33.5003 14.5V19.0001H34.5003V14.5H33.5003ZM33.5003 14.5L33.5003 14.5H34.5003C34.5003 13.9477 34.0526 13.5 33.5003 13.5V14.5ZM22.357 33.5005C26.6964 33.5005 30.2141 29.9826 30.2141 25.643H29.2141C29.2141 29.4304 26.144 32.5005 22.357 32.5005V33.5005ZM14.5 25.643C14.5 29.9826 18.0177 33.5005 22.357 33.5005V32.5005C18.5701 32.5005 15.5 29.4304 15.5 25.643H14.5ZM22.357 17.7855C18.0177 17.7855 14.5 21.3034 14.5 25.643H15.5C15.5 21.8557 18.5701 18.7855 22.357 18.7855V17.7855ZM30.2141 25.643C30.2141 21.3034 26.6964 17.7855 22.357 17.7855V18.7855C26.144 18.7855 29.2141 21.8557 29.2141 25.643H30.2141Z" fill="#3478EB" mask="url(#path-2-outside-1_68_5575)"/>
</g>
</g>
</svg>
