<svg width="48" height="40" viewBox="0 0 48 40" fill="none" xmlns="http://www.w3.org/2000/svg">
<path d="M12.514 8.24573C12.4859 8.27385 12.4578 8.30196 12.4297 8.33008L24.196 20.0963L36.0051 8.28716C29.4885 1.80437 18.981 1.77879 12.514 8.24573Z" fill="#FC3F1D"/>
<path d="M24.1958 20.0955L12.4295 8.32924C6.04716 14.8021 6.10082 25.2476 12.5553 31.736L24.1958 20.0955Z" fill="#7FE0AE"/>
<path d="M24.1952 20.0958L12.5547 31.7363C19.1278 38.2193 29.5957 38.307 36.018 31.9187L24.1952 20.0958Z" fill="#F7CE46"/>
<path d="M24.1953 20.0967L36.0181 31.9195C42.4961 25.3511 42.4929 14.8098 36.0045 8.2875L24.1953 20.0967Z" fill="#3478EB"/>
<path d="M19.4676 17.7542C20.8341 16.3877 20.8344 14.1713 19.4676 12.8044C18.1008 11.4376 15.8843 11.4379 14.5178 12.8044C13.1509 14.1714 13.151 16.3874 14.5178 17.7542C15.8847 19.121 18.1007 19.1211 19.4676 17.7542Z" fill="#FC3F1D"/>
<path d="M31.4871 15.6331C32.8541 14.2661 32.854 12.0502 31.4871 10.6833C30.1203 9.31653 27.9043 9.3164 26.5374 10.6833C25.1704 12.0503 25.1706 14.2663 26.5374 15.6331C27.9042 16.9999 30.1202 17 31.4871 15.6331Z" fill="#3478EB"/>
<path d="M33.6082 27.6536C34.9747 26.2871 34.9751 24.0707 33.6082 22.7038C32.2414 21.337 30.025 21.3373 28.6585 22.7038C27.2915 24.0708 27.2917 26.2868 28.6585 27.6536C30.0253 29.0204 32.2413 29.0205 33.6082 27.6536Z" fill="#F7CE46"/>
<path d="M21.5887 29.7757C22.9556 28.4087 22.9555 26.1928 21.5887 24.8259C20.2219 23.4591 18.0059 23.459 16.6389 24.8259C15.272 26.1928 15.2721 28.4089 16.6389 29.7757C18.0058 31.1425 20.2218 31.1426 21.5887 29.7757Z" fill="#7FE0AE"/>
</svg>
